<svg xmlns="http://www.w3.org/2000/svg" width="452" height="526" font-family="Arial Narrow,Arial,Helvetica,sans-serif">
<defs>
  <clipPath id="mc"><rect x="18.0" y="63.0" width="435.5" height="365.0"/></clipPath>
</defs>
<rect width="452" height="526" fill="#c8b880"/>
<rect x="0" y="0" width="452" height="50" fill="#3a2808"/>
<text x="226" y="26" text-anchor="middle" font-size="15" font-weight="bold" letter-spacing="4" fill="#f0e0b0">CAMPAIGN FOR NORTH AFRICA</text>
<text x="226" y="43" text-anchor="middle" font-size="10" fill="#c0a878">Turn 1 of 100  ·  Week of 09 September 1940</text>
<g id="tiles" clip-path="url(#mc)">
  <polygon points="57.00,113.36 47.50,129.82 28.50,129.82 19.00,113.36 28.50,96.91 47.50,96.91" fill="#c8d8b0" stroke="#7a5c2c" stroke-width="0.7"/>
  <circle cx="38.0" cy="107.7" r="3" fill="#b02010" stroke="#701008" stroke-width="0.5"/>
  <polygon points="57.00,146.27 47.50,162.73 28.50,162.73 19.00,146.27 28.50,129.82 47.50,129.82" fill="#98b068" stroke="#7a5c2c" stroke-width="0.7"/>
  <polygon points="57.00,179.18 47.50,195.64 28.50,195.64 19.00,179.18 28.50,162.73 47.50,162.73" fill="#98b068" stroke="#7a5c2c" stroke-width="0.7"/>
  <polygon points="85.50,96.91 76.00,113.36 57.00,113.36 47.50,96.91 57.00,80.45 76.00,80.45" fill="#c8d8b0" stroke="#c04820" stroke-width="1.2"/>
  <circle cx="66.5" cy="91.2" r="3" fill="#b02010" stroke="#701008" stroke-width="0.5"/>
  <polygon points="85.50,129.82 76.00,146.27 57.00,146.27 47.50,129.82 57.00,113.36 76.00,113.36" fill="#ddc98a" stroke="#c04820" stroke-width="1.2"/>
  <polygon points="85.50,162.73 76.00,179.18 57.00,179.18 47.50,162.73 57.00,146.27 76.00,146.27" fill="#ddc98a" stroke="#c04820" stroke-width="1.2"/>
  <polygon points="85.50,195.64 76.00,212.09 57.00,212.09 47.50,195.64 57.00,179.18 76.00,179.18" fill="#ddc98a" stroke="#c04820" stroke-width="1.2"/>
  <polygon points="85.50,228.54 76.00,245.00 57.00,245.00 47.50,228.54 57.00,212.09 76.00,212.09" fill="#a88858" stroke="#c04820" stroke-width="1.2"/>
  <polygon points="114.00,113.36 104.50,129.82 85.50,129.82 76.00,113.36 85.50,96.91 104.50,96.91" fill="#c8d8b0" stroke="#c04820" stroke-width="1.2"/>
  <circle cx="95.0" cy="107.7" r="3" fill="#b02010" stroke="#701008" stroke-width="0.5"/>
  <polygon points="114.00,146.27 104.50,162.73 85.50,162.73 76.00,146.27 85.50,129.82 104.50,129.82" fill="#98b068" stroke="#c04820" stroke-width="1.2"/>
  <circle cx="95.0" cy="140.6" r="3" fill="#b02010" stroke="#701008" stroke-width="0.5"/>
  <polygon points="114.00,179.18 104.50,195.64 85.50,195.64 76.00,179.18 85.50,162.73 104.50,162.73" fill="#98b068" stroke="#c04820" stroke-width="1.2"/>
  <circle cx="95.0" cy="173.5" r="3" fill="#b02010" stroke="#701008" stroke-width="0.5"/>
  <polygon points="114.00,212.09 104.50,228.54 85.50,228.54 76.00,212.09 85.50,195.64 104.50,195.64" fill="#ddc98a" stroke="#c04820" stroke-width="1.2"/>
  <circle cx="95.0" cy="206.4" r="3" fill="#b02010" stroke="#701008" stroke-width="0.5"/>
  <polygon points="114.00,245.00 104.50,261.45 85.50,261.45 76.00,245.00 85.50,228.54 104.50,228.54" fill="#ddc98a" stroke="#c04820" stroke-width="1.2"/>
  <circle cx="95.0" cy="239.3" r="3" fill="#b02010" stroke="#701008" stroke-width="0.5"/>
  <polygon points="114.00,277.91 104.50,294.36 85.50,294.36 76.00,277.91 85.50,261.45 104.50,261.45" fill="#ddc98a" stroke="#c04820" stroke-width="1.2"/>
  <polygon points="114.00,310.82 104.50,327.27 85.50,327.27 76.00,310.82 85.50,294.36 104.50,294.36" fill="#ddc98a" stroke="#c04820" stroke-width="1.2"/>
  <polygon points="114.00,343.73 104.50,360.18 85.50,360.18 76.00,343.73 85.50,327.27 104.50,327.27" fill="#ddc98a" stroke="#c04820" stroke-width="1.2"/>
  <polygon points="114.00,376.64 104.50,393.09 85.50,393.09 76.00,376.64 85.50,360.18 104.50,360.18" fill="#ddc98a" stroke="#c04820" stroke-width="1.2"/>
  <polygon points="142.50,96.91 133.00,113.36 114.00,113.36 104.50,96.91 114.00,80.45 133.00,80.45" fill="#c8d8b0" stroke="#c04820" stroke-width="1.2"/>
  <circle cx="123.5" cy="91.2" r="3" fill="#b02010" stroke="#701008" stroke-width="0.5"/>
  <polygon points="142.50,129.82 133.00,146.27 114.00,146.27 104.50,129.82 114.00,113.36 133.00,113.36" fill="#ddc98a" stroke="#c04820" stroke-width="1.2"/>
  <polygon points="142.50,162.73 133.00,179.18 114.00,179.18 104.50,162.73 114.00,146.27 133.00,146.27" fill="#ddc98a" stroke="#c04820" stroke-width="1.2"/>
  <polygon points="142.50,195.64 133.00,212.09 114.00,212.09 104.50,195.64 114.00,179.18 133.00,179.18" fill="#c4aa70" stroke="#c04820" stroke-width="1.2"/>
  <polygon points="142.50,228.54 133.00,245.00 114.00,245.00 104.50,228.54 114.00,212.09 133.00,212.09" fill="#c4aa70" stroke="#c04820" stroke-width="1.2"/>
  <polygon points="142.50,261.45 133.00,277.91 114.00,277.91 104.50,261.45 114.00,245.00 133.00,245.00" fill="#e8d8a0" stroke="#c04820" stroke-width="1.2"/>
  <polygon points="142.50,294.36 133.00,310.82 114.00,310.82 104.50,294.36 114.00,277.91 133.00,277.91" fill="#c4aa70" stroke="#c04820" stroke-width="1.2"/>
  <circle cx="123.5" cy="294.4" r="2" fill="#4088b8" stroke="#205070" stroke-width="0.5"/>
  <polygon points="142.50,327.27 133.00,343.73 114.00,343.73 104.50,327.27 114.00,310.82 133.00,310.82" fill="#c4aa70" stroke="#c04820" stroke-width="1.2"/>
  <polygon points="142.50,360.18 133.00,376.64 114.00,376.64 104.50,360.18 114.00,343.73 133.00,343.73" fill="#e8d8a0" stroke="#c04820" stroke-width="1.2"/>
  <polygon points="171.00,113.36 161.50,129.82 142.50,129.82 133.00,113.36 142.50,96.91 161.50,96.91" fill="#a88858" stroke="#c04820" stroke-width="1.2"/>
  <polygon points="171.00,146.27 161.50,162.73 142.50,162.73 133.00,146.27 142.50,129.82 161.50,129.82" fill="#ddc98a" stroke="#c04820" stroke-width="1.2"/>
  <circle cx="152.0" cy="140.6" r="3" fill="#b02010" stroke="#701008" stroke-width="0.5"/>
  <polygon points="171.00,179.18 161.50,195.64 142.50,195.64 133.00,179.18 142.50,162.73 161.50,162.73" fill="#ddc98a" stroke="#c04820" stroke-width="1.2"/>
  <line x1="148.0" y1="179.2" x2="156.0" y2="179.2" stroke="#404040" stroke-width="1.2"/>
  <line x1="152.0" y1="175.2" x2="152.0" y2="183.2" stroke="#404040" stroke-width="1.2"/>
  <polygon points="171.00,212.09 161.50,228.54 142.50,228.54 133.00,212.09 142.50,195.64 161.50,195.64" fill="#ddc98a" stroke="#c04820" stroke-width="1.2"/>
  <polygon points="171.00,245.00 161.50,261.45 142.50,261.45 133.00,245.00 142.50,228.54 161.50,228.54" fill="#ddc98a" stroke="#c04820" stroke-width="1.2"/>
  <line x1="148.0" y1="245.0" x2="156.0" y2="245.0" stroke="#404040" stroke-width="1.2"/>
  <line x1="152.0" y1="241.0" x2="152.0" y2="249.0" stroke="#404040" stroke-width="1.2"/>
  <polygon points="171.00,277.91 161.50,294.36 142.50,294.36 133.00,277.91 142.50,261.45 161.50,261.45" fill="#c4aa70" stroke="#c04820" stroke-width="1.2"/>
  <polygon points="171.00,310.82 161.50,327.27 142.50,327.27 133.00,310.82 142.50,294.36 161.50,294.36" fill="#c4aa70" stroke="#c04820" stroke-width="1.2"/>
  <circle cx="152.0" cy="310.8" r="2" fill="#4088b8" stroke="#205070" stroke-width="0.5"/>
  <polygon points="171.00,343.73 161.50,360.18 142.50,360.18 133.00,343.73 142.50,327.27 161.50,327.27" fill="#c4aa70" stroke="#c04820" stroke-width="1.2"/>
  <line x1="148.0" y1="343.7" x2="156.0" y2="343.7" stroke="#404040" stroke-width="1.2"/>
  <line x1="152.0" y1="339.7" x2="152.0" y2="347.7" stroke="#404040" stroke-width="1.2"/>
  <polygon points="171.00,376.64 161.50,393.09 142.50,393.09 133.00,376.64 142.50,360.18 161.50,360.18" fill="#e8d8a0" stroke="#c04820" stroke-width="1.2"/>
  <polygon points="199.50,96.91 190.00,113.36 171.00,113.36 161.50,96.91 171.00,80.45 190.00,80.45" fill="#b88840" stroke="#c04820" stroke-width="1.2"/>
  <polygon points="199.50,129.82 190.00,146.27 171.00,146.27 161.50,129.82 171.00,113.36 190.00,113.36" fill="#b88840" stroke="#c04820" stroke-width="1.2"/>
  <polygon points="199.50,162.73 190.00,179.18 171.00,179.18 161.50,162.73 171.00,146.27 190.00,146.27" fill="#b88840" stroke="#c04820" stroke-width="1.2"/>
  <polygon points="199.50,195.64 190.00,212.09 171.00,212.09 161.50,195.64 171.00,179.18 190.00,179.18" fill="#ddc98a" stroke="#c04820" stroke-width="1.2"/>
  <polygon points="199.50,228.54 190.00,245.00 171.00,245.00 161.50,228.54 171.00,212.09 190.00,212.09" fill="#ddc98a" stroke="#c04820" stroke-width="1.2"/>
  <circle cx="180.5" cy="222.8" r="3" fill="#b02010" stroke="#701008" stroke-width="0.5"/>
  <polygon points="199.50,261.45 190.00,277.91 171.00,277.91 161.50,261.45 171.00,245.00 190.00,245.00" fill="#c4aa70" stroke="#c04820" stroke-width="1.2"/>
  <polygon points="199.50,294.36 190.00,310.82 171.00,310.82 161.50,294.36 171.00,277.91 190.00,277.91" fill="#b88840" stroke="#c04820" stroke-width="1.2"/>
  <polygon points="199.50,327.27 190.00,343.73 171.00,343.73 161.50,327.27 171.00,310.82 190.00,310.82" fill="#e8d8a0" stroke="#c04820" stroke-width="1.2"/>
  <polygon points="199.50,360.18 190.00,376.64 171.00,376.64 161.50,360.18 171.00,343.73 190.00,343.73" fill="#e8d8a0" stroke="#c04820" stroke-width="1.2"/>
  <polygon points="228.00,113.36 218.50,129.82 199.50,129.82 190.00,113.36 199.50,96.91 218.50,96.91" fill="#b88840" stroke="#c04820" stroke-width="1.2"/>
  <polygon points="228.00,146.27 218.50,162.73 199.50,162.73 190.00,146.27 199.50,129.82 218.50,129.82" fill="#b88840" stroke="#c04820" stroke-width="1.2"/>
  <polygon points="228.00,179.18 218.50,195.64 199.50,195.64 190.00,179.18 199.50,162.73 218.50,162.73" fill="#b88840" stroke="#c04820" stroke-width="1.2"/>
  <polygon points="228.00,212.09 218.50,228.54 199.50,228.54 190.00,212.09 199.50,195.64 218.50,195.64" fill="#ddc98a" stroke="#c04820" stroke-width="1.2"/>
  <polygon points="228.00,245.00 218.50,261.45 199.50,261.45 190.00,245.00 199.50,228.54 218.50,228.54" fill="#ddc98a" stroke="#c04820" stroke-width="1.2"/>
  <circle cx="209.0" cy="239.3" r="3" fill="#b02010" stroke="#701008" stroke-width="0.5"/>
  <polygon points="228.00,277.91 218.50,294.36 199.50,294.36 190.00,277.91 199.50,261.45 218.50,261.45" fill="#ddc98a" stroke="#c04820" stroke-width="1.2"/>
  <polygon points="228.00,310.82 218.50,327.27 199.50,327.27 190.00,310.82 199.50,294.36 218.50,294.36" fill="#c4aa70" stroke="#c04820" stroke-width="1.2"/>
  <polygon points="228.00,343.73 218.50,360.18 199.50,360.18 190.00,343.73 199.50,327.27 218.50,327.27" fill="#e8d8a0" stroke="#c04820" stroke-width="1.2"/>
  <polygon points="228.00,376.64 218.50,393.09 199.50,393.09 190.00,376.64 199.50,360.18 218.50,360.18" fill="#e8d8a0" stroke="#c04820" stroke-width="1.2"/>
  <polygon points="256.50,64.00 247.00,80.45 228.00,80.45 218.50,64.00 228.00,47.55 247.00,47.55" fill="#70a060" stroke="#c04820" stroke-width="1.2"/>
  <circle cx="237.5" cy="64.0" r="2" fill="#4088b8" stroke="#205070" stroke-width="0.5"/>
  <polygon points="256.50,96.91 247.00,113.36 228.00,113.36 218.50,96.91 228.00,80.45 247.00,80.45" fill="#ddc98a" stroke="#c04820" stroke-width="1.2"/>
  <circle cx="237.5" cy="96.9" r="2" fill="#4088b8" stroke="#205070" stroke-width="0.5"/>
  <polygon points="256.50,129.82 247.00,146.27 228.00,146.27 218.50,129.82 228.00,113.36 247.00,113.36" fill="#ddc98a" stroke="#c04820" stroke-width="1.2"/>
  <line x1="233.5" y1="129.8" x2="241.5" y2="129.8" stroke="#404040" stroke-width="1.2"/>
  <line x1="237.5" y1="125.8" x2="237.5" y2="133.8" stroke="#404040" stroke-width="1.2"/>
  <polygon points="256.50,162.73 247.00,179.18 228.00,179.18 218.50,162.73 228.00,146.27 247.00,146.27" fill="#ddc98a" stroke="#c04820" stroke-width="1.2"/>
  <polygon points="256.50,195.64 247.00,212.09 228.00,212.09 218.50,195.64 228.00,179.18 247.00,179.18" fill="#c4aa70" stroke="#c04820" stroke-width="1.2"/>
  <polygon points="256.50,228.54 247.00,245.00 228.00,245.00 218.50,228.54 228.00,212.09 247.00,212.09" fill="#c4aa70" stroke="#c04820" stroke-width="1.2"/>
  <polygon points="256.50,261.45 247.00,277.91 228.00,277.91 218.50,261.45 228.00,245.00 247.00,245.00" fill="#c4aa70" stroke="#c04820" stroke-width="1.2"/>
  <polygon points="256.50,294.36 247.00,310.82 228.00,310.82 218.50,294.36 228.00,277.91 247.00,277.91" fill="#e8d8a0" stroke="#c04820" stroke-width="1.2"/>
  <polygon points="256.50,327.27 247.00,343.73 228.00,343.73 218.50,327.27 228.00,310.82 247.00,310.82" fill="#e8d8a0" stroke="#c04820" stroke-width="1.2"/>
  <polygon points="256.50,360.18 247.00,376.64 228.00,376.64 218.50,360.18 228.00,343.73 247.00,343.73" fill="#e8d8a0" stroke="#c04820" stroke-width="1.2"/>
  <polygon points="256.50,393.09 247.00,409.54 228.00,409.54 218.50,393.09 228.00,376.64 247.00,376.64" fill="#c4aa70" stroke="#c04820" stroke-width="1.2"/>
  <polygon points="285.00,113.36 275.50,129.82 256.50,129.82 247.00,113.36 256.50,96.91 275.50,96.91" fill="#c8d8b0" stroke="#c04820" stroke-width="1.2"/>
  <circle cx="266.0" cy="107.7" r="3" fill="#b02010" stroke="#701008" stroke-width="0.5"/>
  <polygon points="285.00,146.27 275.50,162.73 256.50,162.73 247.00,146.27 256.50,129.82 275.50,129.82" fill="#ddc98a" stroke="#c04820" stroke-width="1.2"/>
  <line x1="262.0" y1="146.3" x2="270.0" y2="146.3" stroke="#404040" stroke-width="1.2"/>
  <line x1="266.0" y1="142.3" x2="266.0" y2="150.3" stroke="#404040" stroke-width="1.2"/>
  <polygon points="285.00,179.18 275.50,195.64 256.50,195.64 247.00,179.18 256.50,162.73 275.50,162.73" fill="#ddc98a" stroke="#c04820" stroke-width="1.2"/>
  <polygon points="285.00,212.09 275.50,228.54 256.50,228.54 247.00,212.09 256.50,195.64 275.50,195.64" fill="#c4aa70" stroke="#c04820" stroke-width="1.2"/>
  <polygon points="285.00,245.00 275.50,261.45 256.50,261.45 247.00,245.00 256.50,228.54 275.50,228.54" fill="#c4aa70" stroke="#c04820" stroke-width="1.2"/>
  <polygon points="285.00,277.91 275.50,294.36 256.50,294.36 247.00,277.91 256.50,261.45 275.50,261.45" fill="#e8d8a0" stroke="#c04820" stroke-width="1.2"/>
  <polygon points="285.00,310.82 275.50,327.27 256.50,327.27 247.00,310.82 256.50,294.36 275.50,294.36" fill="#e8d8a0" stroke="#c04820" stroke-width="1.2"/>
  <polygon points="285.00,343.73 275.50,360.18 256.50,360.18 247.00,343.73 256.50,327.27 275.50,327.27" fill="#e8d8a0" stroke="#c04820" stroke-width="1.2"/>
  <polygon points="285.00,376.64 275.50,393.09 256.50,393.09 247.00,376.64 256.50,360.18 275.50,360.18" fill="#e8d8a0" stroke="#c04820" stroke-width="1.2"/>
  <polygon points="285.00,409.54 275.50,426.00 256.50,426.00 247.00,409.54 256.50,393.09 275.50,393.09" fill="#e8d8a0" stroke="#c04820" stroke-width="1.2"/>
  <polygon points="313.50,96.91 304.00,113.36 285.00,113.36 275.50,96.91 285.00,80.45 304.00,80.45" fill="#c8d8b0" stroke="#2848a0" stroke-width="1.2"/>
  <circle cx="294.5" cy="91.2" r="3" fill="#b02010" stroke="#701008" stroke-width="0.5"/>
  <polygon points="313.50,129.82 304.00,146.27 285.00,146.27 275.50,129.82 285.00,113.36 304.00,113.36" fill="#ddc98a" stroke="#2848a0" stroke-width="1.2"/>
  <line x1="290.5" y1="129.8" x2="298.5" y2="129.8" stroke="#404040" stroke-width="1.2"/>
  <line x1="294.5" y1="125.8" x2="294.5" y2="133.8" stroke="#404040" stroke-width="1.2"/>
  <polygon points="313.50,162.73 304.00,179.18 285.00,179.18 275.50,162.73 285.00,146.27 304.00,146.27" fill="#ddc98a" stroke="#2848a0" stroke-width="1.2"/>
  <circle cx="294.5" cy="162.7" r="2" fill="#4088b8" stroke="#205070" stroke-width="0.5"/>
  <polygon points="313.50,195.64 304.00,212.09 285.00,212.09 275.50,195.64 285.00,179.18 304.00,179.18" fill="#c4aa70" stroke="#2848a0" stroke-width="1.2"/>
  <polygon points="313.50,228.54 304.00,245.00 285.00,245.00 275.50,228.54 285.00,212.09 304.00,212.09" fill="#c4aa70" stroke="#2848a0" stroke-width="1.2"/>
  <polygon points="313.50,261.45 304.00,277.91 285.00,277.91 275.50,261.45 285.00,245.00 304.00,245.00" fill="#e8d8a0" stroke="#2848a0" stroke-width="1.2"/>
  <polygon points="313.50,294.36 304.00,310.82 285.00,310.82 275.50,294.36 285.00,277.91 304.00,277.91" fill="#e8d8a0" stroke="#2848a0" stroke-width="1.2"/>
  <polygon points="313.50,327.27 304.00,343.73 285.00,343.73 275.50,327.27 285.00,310.82 304.00,310.82" fill="#e8d8a0" stroke="#2848a0" stroke-width="1.2"/>
  <polygon points="313.50,360.18 304.00,376.64 285.00,376.64 275.50,360.18 285.00,343.73 304.00,343.73" fill="#e8d8a0" stroke="#2848a0" stroke-width="1.2"/>
  <polygon points="342.00,80.45 332.50,96.91 313.50,96.91 304.00,80.45 313.50,64.00 332.50,64.00" fill="#70a060" stroke="#2848a0" stroke-width="1.2"/>
  <circle cx="323.0" cy="80.5" r="2" fill="#4088b8" stroke="#205070" stroke-width="0.5"/>
  <polygon points="342.00,113.36 332.50,129.82 313.50,129.82 304.00,113.36 313.50,96.91 332.50,96.91" fill="#ddc98a" stroke="#2848a0" stroke-width="1.2"/>
  <line x1="319.0" y1="113.4" x2="327.0" y2="113.4" stroke="#404040" stroke-width="1.2"/>
  <line x1="323.0" y1="109.4" x2="323.0" y2="117.4" stroke="#404040" stroke-width="1.2"/>
  <polygon points="342.00,146.27 332.50,162.73 313.50,162.73 304.00,146.27 313.50,129.82 332.50,129.82" fill="#ddc98a" stroke="#2848a0" stroke-width="1.2"/>
  <line x1="319.0" y1="146.3" x2="327.0" y2="146.3" stroke="#404040" stroke-width="1.2"/>
  <line x1="323.0" y1="142.3" x2="323.0" y2="150.3" stroke="#404040" stroke-width="1.2"/>
  <polygon points="342.00,179.18 332.50,195.64 313.50,195.64 304.00,179.18 313.50,162.73 332.50,162.73" fill="#c4aa70" stroke="#2848a0" stroke-width="1.2"/>
  <polygon points="342.00,212.09 332.50,228.54 313.50,228.54 304.00,212.09 313.50,195.64 332.50,195.64" fill="#c4aa70" stroke="#2848a0" stroke-width="1.2"/>
  <polygon points="342.00,245.00 332.50,261.45 313.50,261.45 304.00,245.00 313.50,228.54 332.50,228.54" fill="#c4aa70" stroke="#2848a0" stroke-width="1.2"/>
  <line x1="319.0" y1="245.0" x2="327.0" y2="245.0" stroke="#404040" stroke-width="1.2"/>
  <line x1="323.0" y1="241.0" x2="323.0" y2="249.0" stroke="#404040" stroke-width="1.2"/>
  <polygon points="342.00,277.91 332.50,294.36 313.50,294.36 304.00,277.91 313.50,261.45 332.50,261.45" fill="#c4aa70" stroke="#2848a0" stroke-width="1.2"/>
  <polygon points="342.00,310.82 332.50,327.27 313.50,327.27 304.00,310.82 313.50,294.36 332.50,294.36" fill="#c4aa70" stroke="#2848a0" stroke-width="1.2"/>
  <polygon points="342.00,343.73 332.50,360.18 313.50,360.18 304.00,343.73 313.50,327.27 332.50,327.27" fill="#e8d8a0" stroke="#2848a0" stroke-width="1.2"/>
  <polygon points="342.00,409.54 332.50,426.00 313.50,426.00 304.00,409.54 313.50,393.09 332.50,393.09" fill="#7ab0cc" stroke="#7a5c2c" stroke-width="0.7"/>
  <polygon points="370.50,96.91 361.00,113.36 342.00,113.36 332.50,96.91 342.00,80.45 361.00,80.45" fill="#c8c8b0" stroke="#2848a0" stroke-width="1.2"/>
  <circle cx="351.5" cy="91.2" r="3" fill="#b02010" stroke="#701008" stroke-width="0.5"/>
  <polygon points="370.50,129.82 361.00,146.27 342.00,146.27 332.50,129.82 342.00,113.36 361.00,113.36" fill="#98b068" stroke="#2848a0" stroke-width="1.2"/>
  <polygon points="370.50,162.73 361.00,179.18 342.00,179.18 332.50,162.73 342.00,146.27 361.00,146.27" fill="#98b068" stroke="#2848a0" stroke-width="1.2"/>
  <polygon points="370.50,195.64 361.00,212.09 342.00,212.09 332.50,195.64 342.00,179.18 361.00,179.18" fill="#c4aa70" stroke="#2848a0" stroke-width="1.2"/>
  <polygon points="370.50,228.54 361.00,245.00 342.00,245.00 332.50,228.54 342.00,212.09 361.00,212.09" fill="#c4aa70" stroke="#2848a0" stroke-width="1.2"/>
  <polygon points="370.50,261.45 361.00,277.91 342.00,277.91 332.50,261.45 342.00,245.00 361.00,245.00" fill="#e8d8a0" stroke="#2848a0" stroke-width="1.2"/>
  <polygon points="370.50,294.36 361.00,310.82 342.00,310.82 332.50,294.36 342.00,277.91 361.00,277.91" fill="#c4aa70" stroke="#2848a0" stroke-width="1.2"/>
  <polygon points="370.50,360.18 361.00,376.64 342.00,376.64 332.50,360.18 342.00,343.73 361.00,343.73" fill="#c4aa70" stroke="#2848a0" stroke-width="1.2"/>
  <polygon points="370.50,393.09 361.00,409.54 342.00,409.54 332.50,393.09 342.00,376.64 361.00,376.64" fill="#c4aa70" stroke="#2848a0" stroke-width="1.2"/>
  <polygon points="399.00,113.36 389.50,129.82 370.50,129.82 361.00,113.36 370.50,96.91 389.50,96.91" fill="#c8c8b0" stroke="#2848a0" stroke-width="1.2"/>
  <circle cx="380.0" cy="107.7" r="3" fill="#b02010" stroke="#701008" stroke-width="0.5"/>
  <polygon points="427.50,96.91 418.00,113.36 399.00,113.36 389.50,96.91 399.00,80.45 418.00,80.45" fill="#c8c8b0" stroke="#2848a0" stroke-width="1.2"/>
  <circle cx="408.5" cy="96.9" r="2" fill="#4088b8" stroke="#205070" stroke-width="0.5"/>
  <polygon points="427.50,129.82 418.00,146.27 399.00,146.27 389.50,129.82 399.00,113.36 418.00,113.36" fill="#c8d8b0" stroke="#2848a0" stroke-width="1.2"/>
  <circle cx="408.5" cy="124.1" r="3" fill="#b02010" stroke="#701008" stroke-width="0.5"/>
</g>
<g id="names" clip-path="url(#mc)" font-size="5.5" fill="#2a200a" text-anchor="middle">
  <text x="38.0" y="127.0">Bone</text>
  <text x="66.5" y="110.6">Tripoli</text>
  <text x="66.5" y="242.2">Tarhuna</text>
  <text x="95.0" y="127.0">Tunis</text>
  <text x="95.0" y="160.0">Bizerte</text>
  <text x="95.0" y="192.9">Sousse</text>
  <text x="95.0" y="225.8">Sfax</text>
  <text x="95.0" y="258.7">Gabes</text>
  <text x="95.0" y="291.6">Gabès Gulf</text>
  <text x="95.0" y="324.5">Mareth</text>
  <text x="95.0" y="357.4">Medenine</text>
  <text x="95.0" y="390.3">Ben Gardane</text>
  <text x="123.5" y="110.6">Benghazi</text>
  <text x="123.5" y="143.5">El Agheila</text>
  <text x="123.5" y="176.4">Mersa Brega</text>
  <text x="123.5" y="209.3">Agedabia</text>
  <text x="123.5" y="242.2">Antelat</text>
  <text x="123.5" y="275.1">Msus</text>
  <text x="123.5" y="308.0">Mechili</text>
  <text x="123.5" y="341.0">Bir Hacheim</text>
  <text x="152.0" y="127.0">Cyrene</text>
  <text x="152.0" y="160.0">Derna</text>
  <text x="152.0" y="192.9">Tmimi</text>
  <text x="152.0" y="225.8">Gazala</text>
  <text x="152.0" y="258.7">Giovanni Berta</text>
  <text x="152.0" y="291.6">Knightsbridge</text>
  <text x="152.0" y="324.5">Bir el Gubi</text>
  <text x="152.0" y="357.4">Sidi Rezegh</text>
  <text x="180.5" y="242.2">Bardia</text>
  <text x="180.5" y="275.1">Capuzzo</text>
  <text x="180.5" y="308.0">Halfaya Pass</text>
  <text x="209.0" y="258.7">Sollum</text>
  <text x="237.5" y="77.7">Jarabub Oasis</text>
  <text x="237.5" y="110.6">Buq Buq</text>
  <text x="237.5" y="143.5">Sidi Barrani</text>
  <text x="266.0" y="127.0">Tobruk</text>
  <text x="266.0" y="160.0">El Adem</text>
  <text x="266.0" y="192.9">Gambut</text>
  <text x="294.5" y="110.6">Mersa Matruh</text>
  <text x="294.5" y="143.5">Fuka</text>
  <text x="294.5" y="176.4">Galal</text>
  <text x="323.0" y="94.1">Siwa Oasis</text>
  <text x="323.0" y="127.0">El Daba</text>
  <text x="323.0" y="160.0">El Alamein</text>
  <text x="323.0" y="192.9">Deir el Shein</text>
  <text x="323.0" y="225.8">Ruweisat Ridge</text>
  <text x="323.0" y="258.7">Alam Halfa Ridge</text>
  <text x="323.0" y="324.5">Himeimat</text>
  <text x="323.0" y="357.4">Qattara Depression edge</text>
  <text x="323.0" y="423.2">Qattara Depression</text>
  <text x="351.5" y="110.6">Alexandria</text>
  <text x="380.0" y="127.0">Port Said</text>
  <text x="408.5" y="110.6">Cairo</text>
  <text x="408.5" y="143.5">Suez</text>
</g>
<g id="depots" clip-path="url(#mc)">
  <rect x="58.5" y="92.4" width="16" height="9" rx="1.5" fill="#2c3c5c" stroke="#1a1a3a" stroke-width="0.8"/>
  <text x="66.5" y="99.9" text-anchor="middle" font-size="5.5" font-weight="bold" fill="#ffffff">SUP</text>
  <rect x="115.5" y="92.4" width="16" height="9" rx="1.5" fill="#2c3c5c" stroke="#1a1a3a" stroke-width="0.8"/>
  <text x="123.5" y="99.9" text-anchor="middle" font-size="5.5" font-weight="bold" fill="#ffffff">SUP</text>
  <rect x="172.5" y="224.0" width="16" height="9" rx="1.5" fill="#2c3c5c" stroke="#1a1a3a" stroke-width="0.8"/>
  <text x="180.5" y="231.5" text-anchor="middle" font-size="5.5" font-weight="bold" fill="#ffffff">SUP</text>
  <rect x="144.0" y="141.8" width="16" height="9" rx="1.5" fill="#2c3c5c" stroke="#1a1a3a" stroke-width="0.8"/>
  <text x="152.0" y="149.3" text-anchor="middle" font-size="5.5" font-weight="bold" fill="#ffffff">SUP</text>
  <rect x="115.5" y="125.3" width="16" height="9" rx="1.5" fill="#2c3c5c" stroke="#1a1a3a" stroke-width="0.8"/>
  <text x="123.5" y="132.8" text-anchor="middle" font-size="5.5" font-weight="bold" fill="#ffffff">SUP</text>
  <rect x="400.5" y="92.4" width="16" height="9" rx="1.5" fill="#2c3c5c" stroke="#1a1a3a" stroke-width="0.8"/>
  <text x="408.5" y="99.9" text-anchor="middle" font-size="5.5" font-weight="bold" fill="#ffffff">SUP</text>
  <rect x="372.0" y="108.9" width="16" height="9" rx="1.5" fill="#2c3c5c" stroke="#1a1a3a" stroke-width="0.8"/>
  <text x="380.0" y="116.4" text-anchor="middle" font-size="5.5" font-weight="bold" fill="#ffffff">SUP</text>
  <rect x="315.0" y="339.2" width="16" height="9" rx="1.5" fill="#2c3c5c" stroke="#1a1a3a" stroke-width="0.8"/>
  <text x="323.0" y="346.7" text-anchor="middle" font-size="5.5" font-weight="bold" fill="#ffffff">SUP</text>
  <rect x="258.0" y="108.9" width="16" height="9" rx="1.5" fill="#2c3c5c" stroke="#1a1a3a" stroke-width="0.8"/>
  <text x="266.0" y="116.4" text-anchor="middle" font-size="5.5" font-weight="bold" fill="#ffffff">SUP</text>
</g>
<g id="units" clip-path="url(#mc)">
  <rect x="257.5" y="305.8" width="20" height="13" rx="1.5" fill="#00000050"/>
  <rect x="256.0" y="304.3" width="20" height="13" rx="1.5" fill="#909080" stroke="#1a1a1a" stroke-width="1"/>
  <rect x="257.5" y="305.8" width="17" height="10" rx="0.5" fill="none" stroke="#ffffff50" stroke-width="0.6"/>
  <text x="266.0" y="313.3" text-anchor="middle" font-size="6" font-weight="bold" fill="#ffffff">IAH</text>
  <rect x="260.0" y="303.3" width="20" height="13" rx="1.5" fill="#00000050"/>
  <rect x="258.5" y="301.8" width="20" height="13" rx="1.5" fill="#909080" stroke="#1a1a1a" stroke-width="1"/>
  <rect x="260.0" y="303.3" width="17" height="10" rx="0.5" fill="none" stroke="#ffffff50" stroke-width="0.6"/>
  <text x="268.5" y="310.8" text-anchor="middle" font-size="6" font-weight="bold" fill="#ffffff">IDH</text>
  <rect x="262.5" y="300.8" width="20" height="13" rx="1.5" fill="#00000050"/>
  <rect x="261.0" y="299.3" width="20" height="13" rx="1.5" fill="#909080" stroke="#1a1a1a" stroke-width="1"/>
  <rect x="262.5" y="300.8" width="17" height="10" rx="0.5" fill="none" stroke="#ffffff50" stroke-width="0.6"/>
  <text x="271.0" y="308.3" text-anchor="middle" font-size="6" font-weight="bold" fill="#ffffff">AR</text>
  <text x="278.0" y="310.8" font-size="8" fill="#303020">+1</text>
  <rect x="257.5" y="272.9" width="20" height="13" rx="1.5" fill="#00000050"/>
  <rect x="256.0" y="271.4" width="20" height="13" rx="1.5" fill="#909080" stroke="#1a1a1a" stroke-width="1"/>
  <rect x="257.5" y="272.9" width="17" height="10" rx="0.5" fill="none" stroke="#ffffff50" stroke-width="0.6"/>
  <text x="266.0" y="280.4" text-anchor="middle" font-size="6" font-weight="bold" fill="#ffffff">IR</text>
  <rect x="257.5" y="207.1" width="20" height="13" rx="1.5" fill="#00000050"/>
  <rect x="256.0" y="205.6" width="20" height="13" rx="1.5" fill="#909080" stroke="#1a1a1a" stroke-width="1"/>
  <rect x="257.5" y="207.1" width="17" height="10" rx="0.5" fill="none" stroke="#ffffff50" stroke-width="0.6"/>
  <text x="266.0" y="214.6" text-anchor="middle" font-size="6" font-weight="bold" fill="#ffffff">IR</text>
  <rect x="260.0" y="204.6" width="20" height="13" rx="1.5" fill="#00000050"/>
  <rect x="258.5" y="203.1" width="20" height="13" rx="1.5" fill="#909080" stroke="#1a1a1a" stroke-width="1"/>
  <rect x="260.0" y="204.6" width="17" height="10" rx="0.5" fill="none" stroke="#ffffff50" stroke-width="0.6"/>
  <text x="268.5" y="212.1" text-anchor="middle" font-size="6" font-weight="bold" fill="#ffffff">LID</text>
  <rect x="262.5" y="202.1" width="20" height="13" rx="1.5" fill="#00000050"/>
  <rect x="261.0" y="200.6" width="20" height="13" rx="1.5" fill="#909080" stroke="#1a1a1a" stroke-width="1"/>
  <rect x="262.5" y="202.1" width="17" height="10" rx="0.5" fill="none" stroke="#ffffff50" stroke-width="0.6"/>
  <text x="271.0" y="209.6" text-anchor="middle" font-size="6" font-weight="bold" fill="#ffffff">LIR</text>
  <rect x="257.5" y="338.7" width="20" height="13" rx="1.5" fill="#00000050"/>
  <rect x="256.0" y="337.2" width="20" height="13" rx="1.5" fill="#909080" stroke="#1a1a1a" stroke-width="1"/>
  <rect x="257.5" y="338.7" width="17" height="10" rx="0.5" fill="none" stroke="#ffffff50" stroke-width="0.6"/>
  <text x="266.0" y="346.2" text-anchor="middle" font-size="6" font-weight="bold" fill="#ffffff">IDH</text>
  <rect x="260.0" y="336.2" width="20" height="13" rx="1.5" fill="#00000050"/>
  <rect x="258.5" y="334.7" width="20" height="13" rx="1.5" fill="#909080" stroke="#1a1a1a" stroke-width="1"/>
  <rect x="260.0" y="336.2" width="17" height="10" rx="0.5" fill="none" stroke="#ffffff50" stroke-width="0.6"/>
  <text x="268.5" y="343.7" text-anchor="middle" font-size="6" font-weight="bold" fill="#ffffff">AR</text>
  <rect x="262.5" y="333.7" width="20" height="13" rx="1.5" fill="#00000050"/>
  <rect x="261.0" y="332.2" width="20" height="13" rx="1.5" fill="#909080" stroke="#1a1a1a" stroke-width="1"/>
  <rect x="262.5" y="333.7" width="17" height="10" rx="0.5" fill="none" stroke="#ffffff50" stroke-width="0.6"/>
  <text x="271.0" y="341.2" text-anchor="middle" font-size="6" font-weight="bold" fill="#ffffff">MG</text>
  <rect x="257.5" y="240.0" width="20" height="13" rx="1.5" fill="#00000050"/>
  <rect x="256.0" y="238.5" width="20" height="13" rx="1.5" fill="#909080" stroke="#1a1a1a" stroke-width="1"/>
  <rect x="257.5" y="240.0" width="17" height="10" rx="0.5" fill="none" stroke="#ffffff50" stroke-width="0.6"/>
  <text x="266.0" y="247.5" text-anchor="middle" font-size="6" font-weight="bold" fill="#ffffff">IR</text>
  <rect x="229.0" y="355.2" width="20" height="13" rx="1.5" fill="#00000050"/>
  <rect x="227.5" y="353.7" width="20" height="13" rx="1.5" fill="#909080" stroke="#1a1a1a" stroke-width="1"/>
  <rect x="229.0" y="355.2" width="17" height="10" rx="0.5" fill="none" stroke="#ffffff50" stroke-width="0.6"/>
  <text x="237.5" y="362.7" text-anchor="middle" font-size="6" font-weight="bold" fill="#ffffff">IDH</text>
  <rect x="229.0" y="388.1" width="20" height="13" rx="1.5" fill="#00000050"/>
  <rect x="227.5" y="386.6" width="20" height="13" rx="1.5" fill="#909080" stroke="#1a1a1a" stroke-width="1"/>
  <rect x="229.0" y="388.1" width="17" height="10" rx="0.5" fill="none" stroke="#ffffff50" stroke-width="0.6"/>
  <text x="237.5" y="395.6" text-anchor="middle" font-size="6" font-weight="bold" fill="#ffffff">IR</text>
  <rect x="229.0" y="322.3" width="20" height="13" rx="1.5" fill="#00000050"/>
  <rect x="227.5" y="320.8" width="20" height="13" rx="1.5" fill="#909080" stroke="#1a1a1a" stroke-width="1"/>
  <rect x="229.0" y="322.3" width="17" height="10" rx="0.5" fill="none" stroke="#ffffff50" stroke-width="0.6"/>
  <text x="237.5" y="329.8" text-anchor="middle" font-size="6" font-weight="bold" fill="#ffffff">IR</text>
  <rect x="257.5" y="174.2" width="20" height="13" rx="1.5" fill="#00000050"/>
  <rect x="256.0" y="172.7" width="20" height="13" rx="1.5" fill="#909080" stroke="#1a1a1a" stroke-width="1"/>
  <rect x="257.5" y="174.2" width="17" height="10" rx="0.5" fill="none" stroke="#ffffff50" stroke-width="0.6"/>
  <text x="266.0" y="181.7" text-anchor="middle" font-size="6" font-weight="bold" fill="#ffffff">LIR</text>
  <rect x="257.5" y="404.5" width="20" height="13" rx="1.5" fill="#00000050"/>
  <rect x="256.0" y="403.0" width="20" height="13" rx="1.5" fill="#909080" stroke="#1a1a1a" stroke-width="1"/>
  <rect x="257.5" y="404.5" width="17" height="10" rx="0.5" fill="none" stroke="#ffffff50" stroke-width="0.6"/>
  <text x="266.0" y="412.0" text-anchor="middle" font-size="6" font-weight="bold" fill="#ffffff">LID</text>
  <rect x="260.0" y="402.0" width="20" height="13" rx="1.5" fill="#00000050"/>
  <rect x="258.5" y="400.5" width="20" height="13" rx="1.5" fill="#909080" stroke="#1a1a1a" stroke-width="1"/>
  <rect x="260.0" y="402.0" width="17" height="10" rx="0.5" fill="none" stroke="#ffffff50" stroke-width="0.6"/>
  <text x="268.5" y="409.5" text-anchor="middle" font-size="6" font-weight="bold" fill="#ffffff">LIR</text>
  <rect x="257.5" y="371.6" width="20" height="13" rx="1.5" fill="#00000050"/>
  <rect x="256.0" y="370.1" width="20" height="13" rx="1.5" fill="#909080" stroke="#1a1a1a" stroke-width="1"/>
  <rect x="257.5" y="371.6" width="17" height="10" rx="0.5" fill="none" stroke="#ffffff50" stroke-width="0.6"/>
  <text x="266.0" y="379.1" text-anchor="middle" font-size="6" font-weight="bold" fill="#ffffff">LIR</text>
  <rect x="260.0" y="369.1" width="20" height="13" rx="1.5" fill="#00000050"/>
  <rect x="258.5" y="367.6" width="20" height="13" rx="1.5" fill="#909080" stroke="#1a1a1a" stroke-width="1"/>
  <rect x="260.0" y="369.1" width="17" height="10" rx="0.5" fill="none" stroke="#ffffff50" stroke-width="0.6"/>
  <text x="268.5" y="376.6" text-anchor="middle" font-size="6" font-weight="bold" fill="#ffffff">BD</text>
  <rect x="343.0" y="355.2" width="20" height="13" rx="1.5" fill="#00000050"/>
  <rect x="341.5" y="353.7" width="20" height="13" rx="1.5" fill="#8c2820" stroke="#1a1a1a" stroke-width="1"/>
  <rect x="343.0" y="355.2" width="17" height="10" rx="0.5" fill="none" stroke="#ffffff50" stroke-width="0.6"/>
  <text x="351.5" y="362.7" text-anchor="middle" font-size="6" font-weight="bold" fill="#ffffff">ADH</text>
  <rect x="345.5" y="352.7" width="20" height="13" rx="1.5" fill="#00000050"/>
  <rect x="344.0" y="351.2" width="20" height="13" rx="1.5" fill="#8c2820" stroke="#1a1a1a" stroke-width="1"/>
  <rect x="345.5" y="352.7" width="17" height="10" rx="0.5" fill="none" stroke="#ffffff50" stroke-width="0.6"/>
  <text x="354.0" y="360.2" text-anchor="middle" font-size="6" font-weight="bold" fill="#ffffff">RHA</text>
  <rect x="343.0" y="388.1" width="20" height="13" rx="1.5" fill="#00000050"/>
  <rect x="341.5" y="386.6" width="20" height="13" rx="1.5" fill="#8c2820" stroke="#1a1a1a" stroke-width="1"/>
  <rect x="343.0" y="388.1" width="17" height="10" rx="0.5" fill="none" stroke="#ffffff50" stroke-width="0.6"/>
  <text x="351.5" y="395.6" text-anchor="middle" font-size="6" font-weight="bold" fill="#ffffff">AB</text>
  <rect x="345.5" y="385.6" width="20" height="13" rx="1.5" fill="#00000050"/>
  <rect x="344.0" y="384.1" width="20" height="13" rx="1.5" fill="#8c2820" stroke="#1a1a1a" stroke-width="1"/>
  <rect x="345.5" y="385.6" width="17" height="10" rx="0.5" fill="none" stroke="#ffffff50" stroke-width="0.6"/>
  <text x="354.0" y="393.1" text-anchor="middle" font-size="6" font-weight="bold" fill="#ffffff">AB</text>
</g>
<rect x="18.0" y="63.0" width="435.5" height="365.0" fill="none" stroke="#4a3010" stroke-width="2"/>
<text x="38.0" y="436.0" font-size="8" font-weight="bold" letter-spacing="2" fill="#4a3010">LEGEND</text>
<rect x="38.0" y="440.0" width="18" height="11" rx="1.5" fill="#909080" stroke="#1a1a1a" stroke-width="0.8"/>
<text x="59.0" y="448.0" font-size="8" fill="#302010">Italian</text>
<rect x="108.0" y="440.0" width="18" height="11" rx="1.5" fill="#3c5030" stroke="#1a1a1a" stroke-width="0.8"/>
<text x="129.0" y="448.0" font-size="8" fill="#302010">German</text>
<rect x="178.0" y="440.0" width="18" height="11" rx="1.5" fill="#8c2820" stroke="#1a1a1a" stroke-width="0.8"/>
<text x="199.0" y="448.0" font-size="8" fill="#302010">British</text>
<rect x="248.0" y="440.0" width="18" height="11" rx="1.5" fill="#6c1c10" stroke="#1a1a1a" stroke-width="0.8"/>
<text x="269.0" y="448.0" font-size="8" fill="#302010">Cmwlth</text>
<rect x="318.0" y="440.0" width="18" height="11" rx="1.5" fill="#203860" stroke="#1a1a1a" stroke-width="0.8"/>
<text x="339.0" y="448.0" font-size="8" fill="#302010">American</text>
<rect x="38.0" y="454.0" width="14" height="10" fill="#ddc98a" stroke="#7a5c2c" stroke-width="0.6"/>
<text x="55.0" y="462.0" font-size="8" fill="#302010">Desert</text>
<rect x="108.0" y="454.0" width="14" height="10" fill="#a88858" stroke="#7a5c2c" stroke-width="0.6"/>
<text x="125.0" y="462.0" font-size="8" fill="#302010">Hills</text>
<rect x="178.0" y="454.0" width="14" height="10" fill="#b88840" stroke="#7a5c2c" stroke-width="0.6"/>
<text x="195.0" y="462.0" font-size="8" fill="#302010">Escarpment</text>
<rect x="248.0" y="454.0" width="14" height="10" fill="#98b068" stroke="#7a5c2c" stroke-width="0.6"/>
<text x="265.0" y="462.0" font-size="8" fill="#302010">Farmland</text>
<rect x="318.0" y="454.0" width="14" height="10" fill="#7ab0cc" stroke="#7a5c2c" stroke-width="0.6"/>
<text x="335.0" y="462.0" font-size="8" fill="#302010">Sea/Salt Lake</text>
<rect x="388.0" y="454.0" width="14" height="10" fill="#70a060" stroke="#7a5c2c" stroke-width="0.6"/>
<text x="405.0" y="462.0" font-size="8" fill="#302010">Oasis</text>
<rect x="38.0" y="467.0" width="14" height="10" fill="#d4c090" stroke="#c04820" stroke-width="1.2"/>
<text x="55.0" y="475.0" font-size="8" fill="#302010">Axis hex</text>
<rect x="108.0" y="467.0" width="14" height="10" fill="#d4c090" stroke="#2848a0" stroke-width="1.2"/>
<text x="125.0" y="475.0" font-size="8" fill="#302010">Allied hex</text>
<circle cx="198.0" cy="472.0" r="3" fill="#b02010" stroke="#701008" stroke-width="0.5"/>
<text x="204.0" y="475.0" font-size="8" fill="#302010">Port</text>
<circle cx="248.0" cy="472.0" r="2" fill="#4088b8" stroke="#205070" stroke-width="0.5"/>
<text x="253.0" y="475.0" font-size="8" fill="#302010">Water</text>
</svg>